#N canvas 162 24 1039 774 12;
#X obj 140 198 4ms_module;
#X text 690 115 Hordijk;
#X text 568 148 *** Open canvas to explore the engine ***;
#X text 174 168 *** Open canvas to explore the engine ***;
#N canvas 325 23 1015 774 composition 0;
#X msg 35 364 \$1 500;
#X obj 35 389 line;
#X floatatom 35 415 5 0 0 0 - - qlist_freq1, f 5;
#X msg 117 364 \$1 500;
#X obj 117 389 line;
#X floatatom 117 415 5 0 0 0 - - qlist_slew1, f 5;
#X msg 201 364 \$1 500;
#X obj 201 389 line;
#X floatatom 201 415 5 0 0 0 - - qlist_chaos1, f 5;
#X msg 291 364 \$1 500;
#X obj 291 389 line;
#X floatatom 291 415 5 0 0 0 - - qlist_freq2, f 5;
#X msg 33 468 \$1 500;
#X obj 33 493 line;
#X floatatom 33 519 5 0 0 0 - - qlist_slew2, f 5;
#X msg 116 468 \$1 500;
#X obj 116 493 line;
#X floatatom 116 519 5 0 0 0 - - qlist_chaos2, f 5;
#X msg 199 468 \$1 500;
#X obj 199 493 line;
#X floatatom 199 519 5 0 0 0 - - qlist_index, f 5;
#X msg 289 468 \$1 500;
#X obj 289 493 line;
#X floatatom 289 519 5 0 0 0 - - qlist_cutoff, f 5;
#X msg 32 572 \$1 500;
#X obj 32 597 line;
#X floatatom 32 623 5 0 0 0 - - qlist_Q, f 5;
#X msg 114 572 \$1 500;
#X obj 114 597 line;
#X floatatom 114 623 5 0 0 0 - - qlist_slew3, f 5;
#X msg 198 572 \$1 500;
#X obj 198 597 line;
#X floatatom 198 623 5 0 0 0 - - qlist_chaos3, f 5;
#X msg 288 572 \$1 500;
#X obj 288 597 line;
#X floatatom 288 623 5 0 0 0 - - qlist_ho_del_mix, f 5;
#X msg 30 676 \$1 500;
#X obj 30 701 line;
#X floatatom 30 727 5 0 0 0 - - qlist_ho_del_t, f 5;
#X msg 113 676 \$1 500;
#X obj 113 701 line;
#X floatatom 113 727 5 0 0 0 - - qlist_ho_del_Q, f 5;
#X msg 196 676 \$1 500;
#X obj 196 701 line;
#X floatatom 196 727 5 0 0 0 - - qlist_rev, f 5;
#X msg 286 676 \$1 500;
#X obj 286 701 line;
#X floatatom 286 727 5 0 0 0 - - qlist_pan, f 5;
#X text 332 49 Messages from Q list;
#X msg 407 158 read composition.txt;
#X obj 407 201 qlist;
#X obj 375 186 bng 15 250 50 0 empty empty empty 17 7 0 10 #fcfcfc
#000000 #000000;
#X obj 375 83 loadbang;
#X obj 375 113 t b b;
#X obj 35 340 r ho_freq1;
#X obj 117 340 r ho_slew1;
#X obj 201 340 r ho_chaos1;
#X obj 291 340 r ho_freq2;
#X obj 33 444 r ho_slew2;
#X obj 116 444 r ho_chaos2;
#X obj 199 444 r ho_index;
#X obj 289 444 r ho_cutoff;
#X obj 32 548 r ho_Q;
#X obj 114 548 r ho_slew3;
#X obj 198 548 r ho_chaos3;
#X obj 196 652 r ho_rev;
#X obj 286 652 r ho_pan;
#X msg 514 263 \$1 500;
#X obj 514 288 line;
#X floatatom 514 314 5 0 0 0 - - qlist_bank1, f 5;
#X msg 604 263 \$1 500;
#X obj 604 288 line;
#X floatatom 604 314 5 0 0 0 - - qlist_bank2, f 5;
#X msg 688 263 \$1 500;
#X obj 688 288 line;
#X floatatom 688 314 5 0 0 0 - - qlist_bank3, f 5;
#X msg 768 263 \$1 500;
#X obj 768 288 line;
#X floatatom 768 314 5 0 0 0 - - qlist_bank4, f 5;
#X msg 863 263 \$1 500;
#X obj 863 288 line;
#X floatatom 863 314 5 0 0 0 - - qlist_bank5, f 5;
#X msg 513 365 \$1 500;
#X obj 513 390 line;
#X floatatom 513 416 5 0 0 0 - - qlist_bank6, f 5;
#X msg 603 365 \$1 500;
#X obj 603 390 line;
#X floatatom 603 416 5 0 0 0 - - qlist_tempo, f 5;
#X msg 688 365 \$1 500;
#X obj 688 390 line;
#X floatatom 688 416 5 0 0 0 - - qlist_gliss, f 5;
#X msg 768 365 \$1 500;
#X obj 768 390 line;
#X floatatom 768 416 5 0 0 0 - - qlist_hu_del_mix, f 5;
#X msg 863 365 \$1 500;
#X obj 863 390 line;
#X floatatom 863 416 5 0 0 0 - - qlist_hu_del_t, f 5;
#X msg 512 468 \$1 500;
#X obj 512 493 line;
#X floatatom 512 519 5 0 0 0 - - qlist_hu_del_Q, f 5;
#X msg 862 466 \$1 500;
#X obj 862 491 line;
#X floatatom 862 517 5 0 0 0 - - qlist_mode_m, f 5;
#X msg 510 572 \$1 500;
#X obj 510 597 line;
#X floatatom 510 623 5 0 0 0 - - qlist_mode_a, f 5;
#X msg 600 572 \$1 500;
#X obj 600 597 line;
#X floatatom 600 623 5 0 0 0 - - qlist_m_down, f 5;
#X msg 688 571 \$1 500;
#X obj 688 596 line;
#X floatatom 688 622 5 0 0 0 - - qlist_m_up, f 5;
#X msg 765 570 \$1 500;
#X obj 765 595 line;
#X floatatom 765 621 5 0 0 0 - - qlist_a_down, f 5;
#X obj 514 239 r hu_bank1;
#X obj 604 239 r hu_bank2;
#X obj 688 239 r hu_bank3;
#X obj 768 239 r hu_bank4;
#X obj 863 239 r hu_bank5;
#X obj 513 341 r hu_bank6;
#X obj 603 341 r hu_tempo;
#X obj 862 442 r hu_mode_m;
#X obj 510 548 r hu_mode_a;
#X obj 600 548 r hu_m_down;
#X obj 688 547 r hu_m_up;
#X obj 765 546 r hu_a_down;
#X msg 862 570 \$1 500;
#X obj 862 595 line;
#X floatatom 862 621 5 0 0 0 - - qlist_a_both, f 5;
#X msg 510 674 \$1 500;
#X obj 510 699 line;
#X floatatom 510 725 5 0 0 0 - - qlist_a_up, f 5;
#X msg 600 673 \$1 500;
#X obj 600 698 line;
#X floatatom 600 724 5 0 0 0 - - qlist_drone, f 5;
#X msg 688 672 \$1 500;
#X obj 688 697 line;
#X floatatom 688 723 5 0 0 0 - - qlist_env, f 5;
#X msg 765 672 \$1 500;
#X obj 765 697 line;
#X floatatom 765 723 5 0 0 0 - - qlist_scale, f 5;
#X msg 861 672 \$1 500;
#X obj 861 697 line;
#X floatatom 861 723 5 0 0 0 - - qlist_spread, f 5;
#X obj 862 546 r hu_a_both;
#X obj 510 650 r hu_a_up;
#X obj 600 649 r hu_drone;
#X obj 688 648 r hu_env;
#X obj 765 648 r hu_scale;
#X obj 861 648 r hu_spread;
#X msg 602 468 \$1 500;
#X obj 602 493 line;
#X floatatom 602 519 5 0 0 0 - - qlist_duty, f 5;
#X msg 688 467 \$1 500;
#X obj 688 492 line;
#X floatatom 688 518 5 0 0 0 - - qlist_dim, f 5;
#X msg 768 466 \$1 500;
#X obj 768 491 line;
#X floatatom 768 517 5 0 0 0 - - qlist_curve, f 5;
#X obj 602 444 r hu_duty;
#X obj 688 443 r hu_dim;
#X obj 768 442 r hu_curve;
#X text 165 292 Hordijk;
#X text 695 190 Huygens;
#X obj 688 341 r hu_gliss;
#X obj 768 341 r hu_del_mix;
#X obj 863 341 r hu_del_t;
#X obj 512 444 r hu_del_Q;
#X text 182 184 press to play composition!;
#X obj 288 548 r ho_del_mix;
#X obj 30 652 r ho_del_t;
#X obj 113 652 r ho_del_Q;
#X text 553 47 This patch is responsible for the assignment's one minute
composition. All the data is provided by composition.txt which is then
distributed via qlist.;
#X connect 0 0 1 0;
#X connect 1 0 2 0;
#X connect 3 0 4 0;
#X connect 4 0 5 0;
#X connect 6 0 7 0;
#X connect 7 0 8 0;
#X connect 9 0 10 0;
#X connect 10 0 11 0;
#X connect 12 0 13 0;
#X connect 13 0 14 0;
#X connect 15 0 16 0;
#X connect 16 0 17 0;
#X connect 18 0 19 0;
#X connect 19 0 20 0;
#X connect 21 0 22 0;
#X connect 22 0 23 0;
#X connect 24 0 25 0;
#X connect 25 0 26 0;
#X connect 27 0 28 0;
#X connect 28 0 29 0;
#X connect 30 0 31 0;
#X connect 31 0 32 0;
#X connect 33 0 34 0;
#X connect 34 0 35 0;
#X connect 36 0 37 0;
#X connect 37 0 38 0;
#X connect 39 0 40 0;
#X connect 40 0 41 0;
#X connect 42 0 43 0;
#X connect 43 0 44 0;
#X connect 45 0 46 0;
#X connect 46 0 47 0;
#X connect 49 0 50 0;
#X connect 51 0 50 0;
#X connect 52 0 53 0;
#X connect 53 0 51 0;
#X connect 53 1 49 0;
#X connect 54 0 0 0;
#X connect 55 0 3 0;
#X connect 56 0 6 0;
#X connect 57 0 9 0;
#X connect 58 0 12 0;
#X connect 59 0 15 0;
#X connect 60 0 18 0;
#X connect 61 0 21 0;
#X connect 62 0 24 0;
#X connect 63 0 27 0;
#X connect 64 0 30 0;
#X connect 65 0 42 0;
#X connect 66 0 45 0;
#X connect 67 0 68 0;
#X connect 68 0 69 0;
#X connect 70 0 71 0;
#X connect 71 0 72 0;
#X connect 73 0 74 0;
#X connect 74 0 75 0;
#X connect 76 0 77 0;
#X connect 77 0 78 0;
#X connect 79 0 80 0;
#X connect 80 0 81 0;
#X connect 82 0 83 0;
#X connect 83 0 84 0;
#X connect 85 0 86 0;
#X connect 86 0 87 0;
#X connect 88 0 89 0;
#X connect 89 0 90 0;
#X connect 91 0 92 0;
#X connect 92 0 93 0;
#X connect 94 0 95 0;
#X connect 95 0 96 0;
#X connect 97 0 98 0;
#X connect 98 0 99 0;
#X connect 100 0 101 0;
#X connect 101 0 102 0;
#X connect 103 0 104 0;
#X connect 104 0 105 0;
#X connect 106 0 107 0;
#X connect 107 0 108 0;
#X connect 109 0 110 0;
#X connect 110 0 111 0;
#X connect 112 0 113 0;
#X connect 113 0 114 0;
#X connect 115 0 67 0;
#X connect 116 0 70 0;
#X connect 117 0 73 0;
#X connect 118 0 76 0;
#X connect 119 0 79 0;
#X connect 120 0 82 0;
#X connect 121 0 85 0;
#X connect 122 0 100 0;
#X connect 123 0 103 0;
#X connect 124 0 106 0;
#X connect 125 0 109 0;
#X connect 126 0 112 0;
#X connect 127 0 128 0;
#X connect 128 0 129 0;
#X connect 130 0 131 0;
#X connect 131 0 132 0;
#X connect 133 0 134 0;
#X connect 134 0 135 0;
#X connect 136 0 137 0;
#X connect 137 0 138 0;
#X connect 139 0 140 0;
#X connect 140 0 141 0;
#X connect 142 0 143 0;
#X connect 143 0 144 0;
#X connect 145 0 127 0;
#X connect 146 0 130 0;
#X connect 147 0 133 0;
#X connect 148 0 136 0;
#X connect 149 0 139 0;
#X connect 150 0 142 0;
#X connect 151 0 152 0;
#X connect 152 0 153 0;
#X connect 154 0 155 0;
#X connect 155 0 156 0;
#X connect 157 0 158 0;
#X connect 158 0 159 0;
#X connect 160 0 151 0;
#X connect 161 0 154 0;
#X connect 162 0 157 0;
#X connect 165 0 88 0;
#X connect 166 0 91 0;
#X connect 167 0 94 0;
#X connect 168 0 97 0;
#X connect 170 0 33 0;
#X connect 171 0 36 0;
#X connect 172 0 39 0;
#X restore 469 62 pd composition;
#X text 293 131 Huygens;
#X text 428 28 Enter To replay composition;
#X obj 558 175 rungler_module;
