#N canvas 184 24 1111 734 12;
#X obj 333 116 tgl 15 0 empty empty empty 17 7 0 10 #fcfcfc #000000
#000000 1 1;
#X obj 333 138 metro 1000;
#X floatatom 399 114 5 0 0 0 - - -, f 5;
#X obj 399 88 ii 1;
#X obj 333 89 loadbang;
#N canvas 180 23 988 774 shift-reg 0;
#X floatatom 150 162 5 0 0 0 - - -, f 5;
#X floatatom 194 236 5 0 0 0 - - -, f 5;
#X floatatom 242 309 5 0 0 0 - - -, f 5;
#X obj 106 431 outlet;
#X obj 241 648 outlet;
#X obj 376 876 outlet;
#X obj 106 324 symbol2list;
#X floatatom 106 376 9 0 0 0 - - -, f 9;
#X obj 106 350 + 100;
#X obj 106 265 pack \$1 \$2 \$3;
#X msg 106 296 symbol \$1\$2\$3;
#X obj 242 543 symbol2list;
#X obj 242 569 + 100;
#X obj 242 484 pack \$1 \$2 \$3;
#X msg 242 515 symbol \$1\$2\$3;
#X floatatom 241 594 5 0 0 0 - - -, f 5;
#N canvas 564 23 783 538 3bit-dac 0;
#X obj 497 81 sel 100;
#X obj 297 225 sel 101;
#X obj 433 81 sel 110;
#X obj 233 225 sel 111;
#X obj 367 81 sel 200;
#X obj 167 225 sel 201;
#X obj 305 81 sel 210;
#X obj 105 225 sel 211;
#X obj 159 61 inlet;
#X obj 232 371 f;
#X obj 233 402 outlet;
#X obj 305 132 bng 15 250 50 0 empty empty empty 17 7 0 10 #fcfcfc
#000000 #000000;
#X obj 367 131 bng 15 250 50 0 empty empty empty 17 7 0 10 #fcfcfc
#000000 #000000;
#X obj 433 131 bng 15 250 50 0 empty empty empty 17 7 0 10 #fcfcfc
#000000 #000000;
#X obj 496 131 bng 15 250 50 0 empty empty empty 17 7 0 10 #fcfcfc
#000000 #000000;
#X obj 297 285 bng 15 250 50 0 empty empty empty 17 7 0 10 #fcfcfc
#000000 #000000;
#X obj 234 285 bng 15 250 50 0 empty empty empty 17 7 0 10 #fcfcfc
#000000 #000000;
#X obj 167 285 bng 15 250 50 0 empty empty empty 17 7 0 10 #fcfcfc
#000000 #000000;
#X obj 104 284 bng 15 250 50 0 empty empty empty 17 7 0 10 #fcfcfc
#000000 #000000;
#X msg 305 106 -9;
#X msg 367 106 -18;
#X msg 433 106 -27;
#X msg 497 106 -36;
#X msg 297 257 9;
#X msg 233 257 18;
#X msg 167 257 27;
#X msg 104 257 36;
#X text 306 357 Each corresponding symbol generates an offset which
is then fed back to the frequency value of the clock oscillator;
#X connect 0 0 22 0;
#X connect 1 0 23 0;
#X connect 2 0 21 0;
#X connect 3 0 24 0;
#X connect 4 0 20 0;
#X connect 5 0 25 0;
#X connect 6 0 19 0;
#X connect 7 0 26 0;
#X connect 8 0 6 0;
#X connect 8 0 4 0;
#X connect 8 0 2 0;
#X connect 8 0 0 0;
#X connect 8 0 1 0;
#X connect 8 0 3 0;
#X connect 8 0 5 0;
#X connect 8 0 7 0;
#X connect 9 0 10 0;
#X connect 19 0 9 0;
#X connect 19 0 11 0;
#X connect 20 0 9 0;
#X connect 20 0 12 0;
#X connect 21 0 9 0;
#X connect 21 0 13 0;
#X connect 22 0 9 0;
#X connect 22 0 14 0;
#X connect 23 0 9 0;
#X connect 23 0 15 0;
#X connect 24 0 9 0;
#X connect 24 0 16 0;
#X connect 25 0 9 0;
#X connect 25 0 17 0;
#X connect 26 0 9 0;
#X connect 26 0 18 0;
#X restore 106 403 pd 3bit-dac;
#X obj 377 773 symbol2list;
#X obj 377 799 + 100;
#X obj 377 714 pack \$1 \$2 \$3;
#X msg 377 745 symbol \$1\$2\$3;
#X floatatom 376 824 5 0 0 0 - - -, f 5;
#X obj 150 108 t f b;
#X obj 150 137 f;
#X obj 194 181 t f b;
#X obj 194 210 f;
#X obj 242 255 t f b;
#X obj 242 284 f;
#X obj 286 327 t f b;
#X obj 286 356 f;
#X floatatom 286 381 5 0 0 0 - - -, f 5;
#X obj 330 400 t f b;
#X obj 330 429 f;
#X floatatom 330 454 5 0 0 0 - - -, f 5;
#X obj 377 473 t f b;
#X obj 377 502 f;
#X floatatom 377 527 5 0 0 0 - - -, f 5;
#X obj 421 546 t f b;
#X obj 421 575 f;
#X floatatom 421 600 5 0 0 0 - - -, f 5;
#X obj 465 619 t f b;
#X obj 467 648 f;
#X floatatom 465 673 5 0 0 0 - - -, f 5;
#X obj 105 64 f;
#X obj 182 44 inlet data;
#X obj 105 32 inlet clk;
#X floatatom 104 89 5 0 0 0 - - -, f 5;
#N canvas 564 23 812 521 3bit-dac 0;
#X obj 497 81 sel 100;
#X obj 297 225 sel 101;
#X obj 433 81 sel 110;
#X obj 233 225 sel 111;
#X obj 367 81 sel 200;
#X obj 167 225 sel 201;
#X obj 305 81 sel 210;
#X obj 105 225 sel 211;
#X obj 159 61 inlet;
#X obj 232 371 f;
#X obj 233 402 outlet;
#X obj 305 132 bng 15 250 50 0 empty empty empty 17 7 0 10 #fcfcfc
#000000 #000000;
#X obj 367 131 bng 15 250 50 0 empty empty empty 17 7 0 10 #fcfcfc
#000000 #000000;
#X obj 433 131 bng 15 250 50 0 empty empty empty 17 7 0 10 #fcfcfc
#000000 #000000;
#X obj 496 131 bng 15 250 50 0 empty empty empty 17 7 0 10 #fcfcfc
#000000 #000000;
#X obj 297 285 bng 15 250 50 0 empty empty empty 17 7 0 10 #fcfcfc
#000000 #000000;
#X obj 234 285 bng 15 250 50 0 empty empty empty 17 7 0 10 #fcfcfc
#000000 #000000;
#X obj 167 285 bng 15 250 50 0 empty empty empty 17 7 0 10 #fcfcfc
#000000 #000000;
#X obj 104 284 bng 15 250 50 0 empty empty empty 17 7 0 10 #fcfcfc
#000000 #000000;
#X msg 305 106 -9;
#X msg 367 106 -18;
#X msg 433 106 -27;
#X msg 497 106 -36;
#X msg 297 257 9;
#X msg 233 257 18;
#X msg 167 257 27;
#X msg 104 257 36;
#X text 338 337 Each corresponding symbol generates an offset which
is then fed back to the frequency value of the data oscillator.;
#X connect 0 0 22 0;
#X connect 1 0 23 0;
#X connect 2 0 21 0;
#X connect 3 0 24 0;
#X connect 4 0 20 0;
#X connect 5 0 25 0;
#X connect 6 0 19 0;
#X connect 7 0 26 0;
#X connect 8 0 6 0;
#X connect 8 0 4 0;
#X connect 8 0 2 0;
#X connect 8 0 0 0;
#X connect 8 0 1 0;
#X connect 8 0 3 0;
#X connect 8 0 5 0;
#X connect 8 0 7 0;
#X connect 9 0 10 0;
#X connect 19 0 9 0;
#X connect 19 0 11 0;
#X connect 20 0 9 0;
#X connect 20 0 12 0;
#X connect 21 0 9 0;
#X connect 21 0 13 0;
#X connect 22 0 9 0;
#X connect 22 0 14 0;
#X connect 23 0 9 0;
#X connect 23 0 15 0;
#X connect 24 0 9 0;
#X connect 24 0 16 0;
#X connect 25 0 9 0;
#X connect 25 0 17 0;
#X connect 26 0 9 0;
#X connect 26 0 18 0;
#X restore 241 620 pd 3bit-dac;
#N canvas 564 23 817 466 3bit-dac 0;
#X obj 497 81 sel 100;
#X obj 297 225 sel 101;
#X obj 433 81 sel 110;
#X obj 233 225 sel 111;
#X obj 367 81 sel 200;
#X obj 167 225 sel 201;
#X obj 305 81 sel 210;
#X obj 105 225 sel 211;
#X obj 159 61 inlet;
#X obj 232 371 f;
#X obj 233 402 outlet;
#X obj 305 132 bng 15 250 50 0 empty empty empty 17 7 0 10 #fcfcfc
#000000 #000000;
#X obj 367 131 bng 15 250 50 0 empty empty empty 17 7 0 10 #fcfcfc
#000000 #000000;
#X obj 433 131 bng 15 250 50 0 empty empty empty 17 7 0 10 #fcfcfc
#000000 #000000;
#X obj 496 131 bng 15 250 50 0 empty empty empty 17 7 0 10 #fcfcfc
#000000 #000000;
#X obj 297 285 bng 15 250 50 0 empty empty empty 17 7 0 10 #fcfcfc
#000000 #000000;
#X obj 234 285 bng 15 250 50 0 empty empty empty 17 7 0 10 #fcfcfc
#000000 #000000;
#X obj 167 285 bng 15 250 50 0 empty empty empty 17 7 0 10 #fcfcfc
#000000 #000000;
#X obj 104 284 bng 15 250 50 0 empty empty empty 17 7 0 10 #fcfcfc
#000000 #000000;
#X msg 305 106 -9;
#X msg 367 106 -18;
#X msg 433 106 -27;
#X msg 497 106 -36;
#X msg 297 257 9;
#X msg 233 257 18;
#X msg 167 257 27;
#X msg 104 257 36;
#X text 336 334 Each corresponding symbol generates an offset which
is then fed back to the frequency value of the filter cutoff.;
#X connect 0 0 22 0;
#X connect 1 0 23 0;
#X connect 2 0 21 0;
#X connect 3 0 24 0;
#X connect 4 0 20 0;
#X connect 5 0 25 0;
#X connect 6 0 19 0;
#X connect 7 0 26 0;
#X connect 8 0 6 0;
#X connect 8 0 4 0;
#X connect 8 0 2 0;
#X connect 8 0 0 0;
#X connect 8 0 1 0;
#X connect 8 0 3 0;
#X connect 8 0 5 0;
#X connect 8 0 7 0;
#X connect 9 0 10 0;
#X connect 19 0 9 0;
#X connect 19 0 11 0;
#X connect 20 0 9 0;
#X connect 20 0 12 0;
#X connect 21 0 9 0;
#X connect 21 0 13 0;
#X connect 22 0 9 0;
#X connect 22 0 14 0;
#X connect 23 0 9 0;
#X connect 23 0 15 0;
#X connect 24 0 9 0;
#X connect 24 0 16 0;
#X connect 25 0 9 0;
#X connect 25 0 17 0;
#X connect 26 0 9 0;
#X connect 26 0 18 0;
#X restore 376 850 pd 3bit-dac;
#X text 449 306 This circuit emulates a 9-stage analog shift register.
The output of every three stages is summed into a 3bit digital representation
("000" \, "001" \, "010" \, "011" ...) which is then sent into the
3bit DAC.;
#X connect 0 0 9 1;
#X connect 0 0 24 0;
#X connect 1 0 9 2;
#X connect 1 0 26 0;
#X connect 2 0 13 0;
#X connect 2 0 28 0;
#X connect 6 0 8 0;
#X connect 7 0 16 0;
#X connect 8 0 7 0;
#X connect 9 0 10 0;
#X connect 10 0 6 0;
#X connect 11 0 12 0;
#X connect 12 0 15 0;
#X connect 13 0 14 0;
#X connect 14 0 11 0;
#X connect 15 0 47 0;
#X connect 16 0 3 0;
#X connect 17 0 18 0;
#X connect 18 0 21 0;
#X connect 19 0 20 0;
#X connect 20 0 17 0;
#X connect 21 0 48 0;
#X connect 22 0 23 1;
#X connect 22 1 23 0;
#X connect 23 0 0 0;
#X connect 24 0 25 1;
#X connect 24 1 25 0;
#X connect 25 0 1 0;
#X connect 26 0 27 1;
#X connect 26 1 27 0;
#X connect 27 0 2 0;
#X connect 28 0 29 1;
#X connect 28 1 29 0;
#X connect 29 0 30 0;
#X connect 30 0 31 0;
#X connect 30 0 13 1;
#X connect 31 0 32 1;
#X connect 31 1 32 0;
#X connect 32 0 33 0;
#X connect 33 0 13 2;
#X connect 33 0 34 0;
#X connect 34 0 35 1;
#X connect 34 1 35 0;
#X connect 35 0 36 0;
#X connect 36 0 37 0;
#X connect 36 0 19 0;
#X connect 37 0 38 1;
#X connect 37 1 38 0;
#X connect 38 0 39 0;
#X connect 39 0 40 0;
#X connect 39 0 19 1;
#X connect 40 0 41 1;
#X connect 40 1 41 0;
#X connect 41 0 42 0;
#X connect 42 0 19 2;
#X connect 43 0 46 0;
#X connect 44 0 43 1;
#X connect 45 0 43 0;
#X connect 46 0 22 0;
#X connect 46 0 9 0;
#X connect 47 0 4 0;
#X connect 48 0 5 0;
#X restore 156 175 pd shift-reg;
#X obj 333 170 s sample;
#X obj 207 600 mtof;
#N canvas 94 122 627 421 phase-modulation 1;
#X obj 127 220 *~;
#X obj 109 246 +~;
#X obj 109 275 cos~;
#X obj 109 331 outlet~;
#X obj 213 200 inlet index;
#X obj 127 145 r~ \$0-osc1-FM;
#X obj 109 106 r~ \$0-osc2-FM;
#X text 305 200 intensity of modulation;
#X text 217 103 osc 2 (data oscillator) is the carrier;
#X text 229 144 osc 1 (clock oscillator) is the modulator;
#X connect 0 0 1 1;
#X connect 1 0 2 0;
#X connect 2 0 3 0;
#X connect 4 0 0 1;
#X connect 5 0 0 0;
#X connect 6 0 1 0;
#X restore 332 266 pd phase-modulation;
#X text 332 210 Phase modulation;
#N canvas 525 23 840 501 osc1 0;
#X obj 379 284 tgl 15 0 empty empty empty 17 7 0 10 #fcfcfc #000000
#000000 0 1;
#X obj 379 229 snapshot~;
#X floatatom 305 146 5 0 0 0 - - -, f 5;
#X obj 379 189 osc~;
#X obj 379 305 change;
#X obj 379 335 bng 15 50 10 0 empty empty empty 17 7 0 10 #fcfcfc #000000
#000000;
#X obj 424 210 r sample;
#X floatatom 305 197 5 0 0 0 - - -, f 5;
#X obj 305 169 ftom;
#X obj 305 279 osc~;
#X obj 305 252 mtof;
#X floatatom 197 272 9 0 0 0 - - -, f 9;
#X obj 305 223 + 50;
#X obj 379 363 outlet;
#X obj 305 121 r \$0-osc1;
#X obj 105 298 s~ \$0-osc1-FM;
#X obj 379 254 > 0;
#X text 38 37 The clock oscillator's frequency value is converted from
Hz into MIDI \, so that an offset could be easily added to the oscillator.
Then it is converted back from its Midi value to its new frequency
value.;
#X text 375 399 Outputs a bang whenever the previous value of the sampled
oscillator is of opposite polarity to its current value. This bang
drives the clock of the Rungler circuit.;
#X connect 0 0 4 0;
#X connect 1 0 16 0;
#X connect 2 0 8 0;
#X connect 3 0 1 0;
#X connect 4 0 5 0;
#X connect 5 0 13 0;
#X connect 6 0 1 0;
#X connect 7 0 12 0;
#X connect 8 0 7 0;
#X connect 8 0 3 0;
#X connect 9 0 15 0;
#X connect 10 0 9 0;
#X connect 10 0 11 0;
#X connect 12 0 10 0;
#X connect 14 0 2 0;
#X connect 16 0 0 0;
#X restore 156 93 pd osc1;
#N canvas 339 127 609 429 osc2 0;
#X obj 58 248 tgl 15 0 empty empty empty 17 7 0 10 #fcfcfc #000000
#000000 1 1;
#X floatatom 58 270 5 0 0 0 - - -, f 5;
#X obj 58 218 > 0;
#X obj 58 192 snapshot~;
#X floatatom 58 134 5 0 0 0 - - -, f 5;
#X obj 143 173 r sample;
#N canvas 587 124 526 372 triangle 0;
#X text 104 15 triangle wave;
#X obj 107 164 phasor~;
#X obj 180 163 phasor~;
#X obj 107 194 *~ 2;
#X obj 107 223 -~ 1;
#X obj 180 136 * -1;
#X floatatom 107 117 5 0 0 0 - - -, f 5;
#X obj 180 193 *~ 2;
#X obj 180 222 -~ 1;
#X obj 107 259 clip~ 0 1;
#X obj 180 258 clip~ 0 1;
#X obj 107 296 +~;
#X msg 226 125 0;
#X text 222 76 phase;
#X obj 226 100 loadbang;
#X obj 107 54 inlet;
#X obj 107 325 *~ 2;
#X obj 107 353 -~ 1;
#X obj 107 385 outlet~;
#X connect 1 0 3 0;
#X connect 2 0 7 0;
#X connect 3 0 4 0;
#X connect 4 0 9 0;
#X connect 5 0 2 0;
#X connect 6 0 5 0;
#X connect 6 0 1 0;
#X connect 7 0 8 0;
#X connect 8 0 10 0;
#X connect 9 0 11 0;
#X connect 10 0 11 1;
#X connect 11 0 16 0;
#X connect 12 0 1 1;
#X connect 12 0 2 1;
#X connect 14 0 12 0;
#X connect 15 0 6 0;
#X connect 16 0 17 0;
#X connect 17 0 18 0;
#X restore 58 158 pd triangle;
#X obj 58 312 outlet;
#X obj 58 105 r \$0-osc2;
#X obj 218 177 s~ \$0-osc2-FM;
#X text 158 104 The sampled oscillator outputs either a "0"(below the
0 crossing) or "1" (above the 0 crossing) into the Data input of the
Rungler circuit.;
#X connect 0 0 1 0;
#X connect 1 0 7 0;
#X connect 2 0 0 0;
#X connect 3 0 2 0;
#X connect 4 0 6 0;
#X connect 5 0 3 0;
#X connect 6 0 3 0;
#X connect 6 0 9 0;
#X connect 8 0 4 0;
#X restore 237 93 pd osc2;
#N canvas 432 139 532 599 rungler 0;
#X obj 17 297 ftom;
#X obj 17 395 +;
#X obj 17 475 mtof;
#X floatatom 17 450 5 0 0 0 - - -, f 5;
#X obj 121 243 t b f;
#X obj 154 375 *;
#X floatatom 16 228 5 0 0 0 - - -, f 5;
#X floatatom 17 329 5 0 0 0 - - -, f 5;
#X floatatom 17 500 5 0 0 0 - - -, f 5;
#X obj 121 159 pack f f;
#X msg 121 189 \$1 \$2;
#X obj 121 215 line;
#X obj 121 84 inlet rungler;
#X obj 174 115 inlet slew;
#X obj 17 544 s \$0-osc1;
#X obj 222 355 inlet mod;
#X obj 16 135 inlet freq;
#X text 89 476 The offset from the Rungler is summed with the current
value of the clock oscillator.;
#X connect 0 0 7 0;
#X connect 1 0 3 0;
#X connect 2 0 8 0;
#X connect 3 0 2 0;
#X connect 4 0 1 0;
#X connect 4 1 5 0;
#X connect 5 0 1 1;
#X connect 6 0 0 0;
#X connect 7 0 1 0;
#X connect 8 0 14 0;
#X connect 9 0 10 0;
#X connect 10 0 11 0;
#X connect 11 0 4 0;
#X connect 12 0 9 0;
#X connect 13 0 9 1;
#X connect 15 0 5 1;
#X connect 16 0 6 0;
#X restore 123 348 pd rungler mod1;
#N canvas 432 139 625 565 rungler 0;
#X obj 16 135 inlet;
#X obj 17 297 ftom;
#X obj 17 395 +;
#X obj 17 475 mtof;
#X floatatom 17 450 5 0 0 0 - - -, f 5;
#X obj 121 243 t b f;
#X obj 154 375 *;
#X floatatom 16 228 5 0 0 0 - - -, f 5;
#X floatatom 17 329 5 0 0 0 - - -, f 5;
#X floatatom 17 500 5 0 0 0 - - -, f 5;
#X obj 121 159 pack f f;
#X msg 121 189 \$1 \$2;
#X obj 121 215 line;
#X obj 121 84 inlet rungler;
#X obj 174 115 inlet slew;
#X obj 17 524 s \$0-osc2;
#X obj 187 355 inlet mod;
#X text 125 443 The offset from the Rungler is summed with the current
value of the data oscillator.;
#X connect 0 0 7 0;
#X connect 1 0 8 0;
#X connect 2 0 4 0;
#X connect 3 0 9 0;
#X connect 4 0 3 0;
#X connect 5 0 2 0;
#X connect 5 1 6 0;
#X connect 6 0 2 1;
#X connect 7 0 1 0;
#X connect 8 0 2 0;
#X connect 9 0 15 0;
#X connect 10 0 11 0;
#X connect 11 0 12 0;
#X connect 12 0 5 0;
#X connect 13 0 10 0;
#X connect 14 0 10 1;
#X connect 16 0 6 1;
#X restore 163 501 pd rungler mod2;
#N canvas 432 139 590 560 rungler 0;
#X obj 17 297 ftom;
#X obj 17 395 +;
#X floatatom 17 450 5 0 0 0 - - -, f 5;
#X obj 121 243 t b f;
#X obj 154 375 *;
#X floatatom 17 228 5 0 0 0 - - -, f 5;
#X floatatom 17 329 5 0 0 0 - - -, f 5;
#X obj 121 159 pack f f;
#X msg 121 189 \$1 \$2;
#X obj 121 215 line;
#X obj 121 84 inlet rungler;
#X obj 174 115 inlet slew;
#X obj 17 524 s \$0-filter;
#X obj 17 486 mtof;
#X obj 242 355 inlet mod;
#X obj 17 135 inlet freq;
#X text 105 454 The offset from the Rungler is summed with the current
value of the cutoff filter's frequency.;
#X connect 0 0 6 0;
#X connect 1 0 2 0;
#X connect 2 0 13 0;
#X connect 3 0 1 0;
#X connect 3 1 4 0;
#X connect 4 0 1 1;
#X connect 5 0 0 0;
#X connect 6 0 1 0;
#X connect 7 0 8 0;
#X connect 8 0 9 0;
#X connect 9 0 3 0;
#X connect 10 0 7 0;
#X connect 11 0 7 1;
#X connect 13 0 12 0;
#X connect 14 0 4 1;
#X connect 15 0 5 0;
#X restore 207 651 pd rungler mod3;
#N canvas 495 23 588 323 filter 0;
#X obj 143 183 moog~;
#X obj 142 33 inlet~;
#X obj 175 158 r \$0-res;
#X obj 159 131 r \$0-filter;
#X obj 143 221 outlet~;
#X connect 0 0 4 0;
#X connect 1 0 0 0;
#X connect 2 0 0 2;
#X connect 3 0 0 1;
#X restore 332 333 pd filter;
#X text 341 302 filter;
#X text 330 57 high freq clock;
#X text 234 56 data osc;
#X text 150 56 clock osc;
#X text 112 135 shift register with 3 DACs;
#X text 119 230 clock osc modulation;
#X text 164 386 data osc modulation;
#X text 207 535 filter modulation;
#N canvas 167 23 1027 631 delay 0;
#X obj 199 148 r~ \$0-feedback;
#X obj 199 107 inlet~;
#X obj 198 445 *~;
#X obj 285 312 r \$0-mix-send;
#X obj 285 341 swap 1;
#X obj 285 367 -;
#X obj 285 398 pack f 50;
#X obj 285 425 line~;
#X obj 198 477 +~;
#X obj 389 94 r \$0-delaytime-send;
#X obj 389 120 * 2000;
#X obj 389 148 pack f 50;
#X obj 389 181 line~;
#X obj 389 456 *~;
#X obj 486 240 *~;
#X obj 504 155 r \$0-feedback-send;
#X obj 504 184 pack f 50;
#X obj 504 214 line~;
#X obj 486 271 s~ \$0-feedback;
#X obj 198 502 outlet~;
#X obj 407 332 pack f 50;
#X obj 407 359 line~;
#X obj 199 176 delwrite~ \$0-delsig 1500;
#X obj 389 220 vd~ \$0-delsig;
#X text 514 420 https://www.youtube.com/watch?v=z5nxbPenEIs&t=991s
;
#X text 496 366 Delay with feedback. Designed with the help of LWM
youtube channel.;
#X connect 0 0 22 0;
#X connect 1 0 2 0;
#X connect 1 0 22 0;
#X connect 2 0 8 0;
#X connect 3 0 4 0;
#X connect 3 0 20 0;
#X connect 4 0 5 0;
#X connect 4 1 5 1;
#X connect 5 0 6 0;
#X connect 6 0 7 0;
#X connect 7 0 2 1;
#X connect 8 0 19 0;
#X connect 9 0 10 0;
#X connect 10 0 11 0;
#X connect 11 0 12 0;
#X connect 12 0 23 0;
#X connect 13 0 8 1;
#X connect 14 0 18 0;
#X connect 15 0 16 0;
#X connect 16 0 17 0;
#X connect 17 0 14 1;
#X connect 20 0 21 0;
#X connect 21 0 13 1;
#X connect 23 0 13 0;
#X connect 23 0 14 0;
#X restore 332 401 pd delay;
#X obj 231 448 r \$0-slew2;
#X obj 123 263 r \$0-freq1;
#X obj 191 288 r \$0-slew1;
#X obj 225 315 r \$0-mod1;
#X obj 265 475 r \$0-mod2;
#X obj 275 598 r \$0-slew3;
#X obj 309 626 r \$0-mod3;
#X obj 332 240 r \$0-index;
#X text 340 373 delay;
#X obj 163 446 mtof;
#X obj 163 421 r \$0-freq2;
#X obj 207 573 r \$0-cutoff;
#X obj 598 88 cnv 15 309 437 empty empty empty 20 12 0 14 #e0e0e0 #404040
0;
#X obj 609 201 hsl 128 15 10 1000 0 0 \$0-slew1 qlist_slew1 slew 49
5 0 10 #fcfcfc #000000 #000000 0 1;
#X obj 609 177 hsl 128 15 0 127 0 0 \$0-freq1 qlist_freq1 frequency
36 5 0 10 #fcfcfc #000000 #000000 925 1;
#X obj 609 225 hsl 128 15 0 1 0 0 \$0-mod1 qlist_chaos1 chaos 46 5
0 10 #fcfcfc #000000 #000000 200 1;
#X obj 760 177 hsl 128 15 0 127 0 0 \$0-freq2 qlist_freq2 frequency
32 5 0 10 #fcfcfc #000000 #000000 7950 1;
#X obj 760 200 hsl 128 15 10 1000 0 0 \$0-slew2 qlist_slew2 slew 47
5 0 10 #fcfcfc #000000 #000000 0 1;
#X obj 760 225 hsl 128 15 0 1 0 0 \$0-mod2 qlist_chaos2 chaos 43 5
0 10 #fcfcfc #000000 #000000 5600 1;
#X obj 692 293 hsl 128 15 0 5 0 0 \$0-index qlist_index FM\ index 39
5 0 10 #fcfcfc #000000 #000000 2450 1;
#X obj 609 379 hsl 128 15 0 3.9 0 0 \$0-res qlist_Q Q 59 6 0 10 #fcfcfc
#000000 #000000 5300 1;
#X obj 609 358 hsl 128 15 0 127 0 0 \$0-cutoff qlist_cutoff cutoff
47 5 0 10 #fcfcfc #000000 #000000 0 1;
#X obj 609 400 hsl 128 15 10 1000 0 0 \$0-slew3 qlist_slew3 slew 52
5 0 10 #fcfcfc #000000 #000000 9500 1;
#X obj 767 358 hsl 128 15 0 1 0 0 \$0-mix-send qlist_ho_del_mix delay\ mix
37 6 0 10 #fcfcfc #000000 #000000 0 1;
#X obj 767 379 hsl 128 15 0.01 1 0 0 \$0-delaytime-send qlist_ho_del_t
delay\ time 35 5 0 10 #fcfcfc #000000 #000000 1700 1;
#X obj 767 399 hsl 128 15 0 1 0 0 \$0-feedback-send qlist_ho_del_Q
delay\ feedback 25 5 0 10 #fcfcfc #000000 #000000 0 1;
#X obj 609 420 hsl 128 15 0 1 0 0 \$0-mod3 qlist_chaos3 chaos 49 6
0 10 #fcfcfc #000000 #000000 0 1;
#X obj 767 420 hsl 128 15 0 1 0 0 \$0-rev qlist_rev reverb\ mix 35
5 0 10 #fcfcfc #000000 #000000 4600 1;
#N canvas 495 23 437 353 reverb 0;
#X obj 188 139 rev1~;
#X obj 248 124 bng 15 250 50 0 empty empty empty 17 7 0 10 #fcfcfc
#000000 #000000;
#N canvas 560 25 448 298 crossfader 0;
#X obj 34 64 inlet~ signal 1;
#X obj 156 64 inlet~ signal 2;
#X obj 293 65 inlet~ xfade;
#X obj 275 136 -~;
#X obj 156 184 *~;
#X obj 34 184 *~;
#X obj 81 204 outlet~;
#X obj 275 107 sig~ 1;
#X obj 275 165 lop~ 1;
#X obj 73 164 lop~ 1;
#X connect 0 0 5 0;
#X connect 1 0 4 0;
#X connect 2 0 3 1;
#X connect 2 0 9 0;
#X connect 3 0 8 0;
#X connect 4 0 6 0;
#X connect 5 0 6 0;
#X connect 7 0 3 0;
#X connect 8 0 4 1;
#X connect 9 0 5 1;
#X restore 86 249 pd crossfader;
#X obj 204 85 ii 80;
#X obj 86 287 outlet~;
#X obj 248 95 loadbang;
#X obj 173 27 inlet mix;
#X obj 24 119 inlet~ wet;
#X obj 128 92 inlet~ dry;
#X obj 86 158 *~ 1;
#X connect 0 0 9 0;
#X connect 1 0 0 2;
#X connect 2 0 4 0;
#X connect 3 0 0 1;
#X connect 5 0 1 0;
#X connect 6 0 2 2;
#X connect 7 0 0 0;
#X connect 8 0 2 1;
#X connect 9 0 2 0;
#X restore 416 420 pd reverb;
#X obj 476 393 r \$0-rev;
#X text 416 385 Reverb;
#X text 820 323 FX;
#N canvas 495 23 768 294 limiter 0;
#X obj 192 114 limiter~;
#X obj 122 97 z~ 64;
#X obj 122 134 *~;
#X obj 122 166 hip~ 1;
#X obj 122 195 outlet~;
#X obj 122 48 inlet~;
#X text 209 165 https://archive.flossmanuals.net/pure-data/audio-tutorials/dc-offset.html
;
#X text 287 82 limiter suggested by Floss Manuals;
#X connect 0 0 2 1;
#X connect 1 0 2 0;
#X connect 2 0 3 0;
#X connect 3 0 4 0;
#X connect 5 0 1 0;
#X connect 5 0 0 0;
#X restore 416 488 pd limiter;
#X text 431 455 limiter;
#X obj 692 485 hsl 128 15 0 1 0 0 \$0-fungler qlist_pan pan 58 5 0
10 #fcfcfc #000000 #000000 6150 1;
#N canvas 260 128 433 442 panner 0;
#X obj 24 315 outlet~ left;
#X obj 24 155 inlet~ osc;
#X obj 91 235 inlet pan;
#N canvas 495 23 515 461 cos-pan 0;
#X obj 134 77 inlet~ signal;
#X obj 234 77 inlet control;
#X obj 234 102 sig~;
#X obj 234 128 lop~ 1;
#X obj 216 304 outlet~ R;
#X obj 135 305 outlet~ L;
#X obj 234 155 *~ 0.25;
#X obj 234 185 -~ 0.25;
#X obj 234 212 cos~;
#X obj 216 274 *~;
#X obj 153 205 -~ 0.25;
#X obj 153 236 cos~;
#X obj 135 275 *~;
#X connect 0 0 9 0;
#X connect 0 0 12 0;
#X connect 1 0 2 0;
#X connect 2 0 3 0;
#X connect 3 0 6 0;
#X connect 6 0 7 0;
#X connect 7 0 8 0;
#X connect 7 0 10 0;
#X connect 8 0 9 1;
#X connect 9 0 4 0;
#X connect 10 0 11 0;
#X connect 11 0 12 1;
#X connect 12 0 5 0;
#X restore 24 265 pd cos-pan;
#X obj 92 340 outlet~ right;
#X text 23 71 Cosine Panner designed by Anthony Farnell in Designing
Sound.;
#X connect 1 0 3 0;
#X connect 2 0 3 1;
#X connect 3 0 0 0;
#X connect 3 1 4 0;
#X restore 416 600 pd panner;
#X obj 476 569 r \$0-fungler;
#X text 438 548 Pan;
#X text 647 140 CLK OSC;
#X text 794 139 DATA OSC;
#X text 744 264 FM;
#X text 658 324 LPF;
#X text 745 452 PAN;
#X text 726 34 Hordijk;
#X obj 416 645 dac~;
#X connect 0 0 1 0;
#X connect 1 0 6 0;
#X connect 2 0 1 1;
#X connect 3 0 2 0;
#X connect 4 0 0 0;
#X connect 5 0 12 1;
#X connect 5 1 13 1;
#X connect 5 2 14 1;
#X connect 7 0 14 0;
#X connect 8 0 15 0;
#X connect 10 0 5 0;
#X connect 11 0 5 1;
#X connect 15 0 24 0;
#X connect 24 0 53 0;
#X connect 24 0 53 1;
#X connect 25 0 13 2;
#X connect 26 0 12 0;
#X connect 27 0 12 2;
#X connect 28 0 12 3;
#X connect 29 0 13 3;
#X connect 30 0 14 2;
#X connect 31 0 14 3;
#X connect 32 0 8 0;
#X connect 34 0 13 0;
#X connect 35 0 34 0;
#X connect 36 0 7 0;
#X connect 53 0 57 0;
#X connect 54 0 53 2;
#X connect 57 0 60 0;
#X connect 60 0 69 0;
#X connect 60 1 69 1;
#X connect 61 0 60 1;
#X coords 0 -1 1 1 311 440 1 597 87;
