#N canvas 165 270 101 204 10;
#X obj 11 14 inlet;
#X obj 50 14 inlet;
#X obj 11 125 outlet;
#X obj 11 87 -;
#X obj 11 55 swap \$1;
#X text 11 180 f.bianchi;
#X connect 0 0 4 0;
#X connect 1 0 4 1;
#X connect 3 0 2 0;
#X connect 4 0 3 0;
#X connect 4 1 3 1;
