#N canvas 0 22 292 154 10;
#X obj 14 32 inlet~;
#X obj 14 87 outlet~;
#X obj 185 35 f \$1;
#X obj 185 8 loadbang;
#X obj 14 59 expr~ if ($v1 == 0 \, $f2 \, $v1);
#X text 216 125 f.bianchi;
#X connect 0 0 4 0;
#X connect 2 0 4 1;
#X connect 3 0 2 0;
#X connect 4 0 1 0;
