#N canvas 61 22 555 578 10;
#X obj 14 322 czero~;
#X obj 14 382 czero~;
#X obj 14 437 cpole~;
#X obj 14 497 cpole~;
#X obj 14 15 inlet~ audio;
#X obj 294 15 inlet~ b0;
#X obj 384 15 inlet~ b1;
#X obj 474 15 inlet~ b2;
#X obj 114 15 inlet~ a1;
#X obj 204 15 inlet~ a2;
#N canvas 0 22 450 300 extract.gain 0;
#X obj 92 74 inlet~;
#X obj 92 185 outlet~;
#X obj 212 74 inlet~;
#X obj 352 74 inlet~;
#X obj 212 185 outlet~;
#X obj 352 185 outlet~;
#X obj 212 141 /~;
#X obj 352 141 /~;
#X connect 0 0 1 0;
#X connect 0 0 6 1;
#X connect 0 0 7 1;
#X connect 2 0 6 0;
#X connect 3 0 7 0;
#X connect 6 0 4 0;
#X connect 7 0 5 0;
#X restore 294 134 pd extract.gain;
#N canvas 0 22 947 444 get.zero.locations 0;
#X obj 125 76 inlet~;
#X obj 324 76 inlet~;
#X obj 201 160 expr~ $v1*$v1 - 4*$v2;
#N canvas 304 86 715 527 zero1 0;
#X obj 78 86 inlet~;
#X obj 243 86 inlet~;
#X obj 180 140 expr~ sqrt(($v1>=0)*$v1);
#X obj 78 420 outlet~;
#X obj 171 420 outlet~;
#X obj 168 323 sig~ 2;
#X text 310 185 if sqrt(b^2-4ac) is less than 0 \, make it the imaginary
part of the numerator. Else \, add it to the real part (imaginary stays
zero).;
#X text 226 273 -b + ...;
#X obj 396 140 expr~ sqrt(($v1<0)*abs($v1));
#N canvas 0 22 450 300 complexadd 0;
#X obj 42 41 inlet~;
#X obj 122 41 inlet~;
#X obj 242 41 inlet~;
#X obj 322 41 inlet~;
#X obj 130 154 +~;
#X obj 250 154 +~;
#X obj 130 197 outlet~;
#X obj 250 197 outlet~;
#X connect 0 0 4 0;
#X connect 1 0 5 0;
#X connect 2 0 4 1;
#X connect 3 0 5 1;
#X connect 4 0 6 0;
#X connect 5 0 7 0;
#X restore 78 273 pd complexadd;
#N canvas 0 22 697 447 complexdiv 0;
#X obj 142 65 inlet~;
#X obj 193 65 inlet~;
#X obj 342 65 inlet~;
#X obj 393 65 inlet~;
#X obj 250 332 outlet~;
#X obj 301 332 outlet~;
#X text 430 284 .mmb;
#X obj 250 286 /~;
#X obj 301 286 /~;
#X obj 394 184 *~;
#X obj 434 184 *~;
#X obj 405 223 +~;
#X obj 165 182 *~;
#X obj 205 182 *~;
#X obj 180 212 +~;
#X obj 285 182 *~;
#X obj 325 182 *~;
#X obj 300 212 -~;
#X connect 0 0 12 0;
#X connect 0 0 16 0;
#X connect 1 0 13 0;
#X connect 1 0 15 0;
#X connect 2 0 9 0;
#X connect 2 0 9 1;
#X connect 2 0 12 1;
#X connect 2 0 15 1;
#X connect 3 0 10 0;
#X connect 3 0 10 1;
#X connect 3 0 13 1;
#X connect 3 0 16 1;
#X connect 7 0 4 0;
#X connect 8 0 5 0;
#X connect 9 0 11 0;
#X connect 10 0 11 1;
#X connect 11 0 8 1;
#X connect 11 0 7 1;
#X connect 12 0 14 0;
#X connect 13 0 14 1;
#X connect 14 0 7 0;
#X connect 15 0 17 0;
#X connect 16 0 17 1;
#X connect 17 0 8 0;
#X restore 78 366 pd complexdiv;
#X connect 0 0 9 0;
#X connect 1 0 2 0;
#X connect 1 0 8 0;
#X connect 2 0 9 2;
#X connect 5 0 10 2;
#X connect 8 0 9 3;
#X connect 9 0 10 0;
#X connect 9 1 10 1;
#X connect 10 0 3 0;
#X connect 10 1 4 0;
#X restore 125 242 pd zero1;
#N canvas 361 56 715 527 zero2 0;
#X obj 78 86 inlet~;
#X obj 243 86 inlet~;
#X obj 393 140 expr~ sqrt(($v1<0)*abs($v1 ));
#X obj 180 140 expr~ sqrt(($v1>=0)*$v1);
#X obj 78 420 outlet~;
#X obj 171 420 outlet~;
#X obj 168 323 sig~ 2;
#X text 310 185 if sqrt(b^2-4ac) is less than 0 \, make it the imaginary
part of the numerator. Else \, add it to the real part (imaginary stays
zero).;
#X text 226 273 -b - ...;
#N canvas 0 22 450 300 complexsub 0;
#X obj 42 41 inlet~;
#X obj 122 41 inlet~;
#X obj 242 41 inlet~;
#X obj 322 41 inlet~;
#X obj 130 197 outlet~;
#X obj 250 197 outlet~;
#X obj 130 154 -~;
#X obj 250 154 -~;
#X connect 0 0 6 0;
#X connect 1 0 7 0;
#X connect 2 0 6 1;
#X connect 3 0 7 1;
#X connect 6 0 4 0;
#X connect 7 0 5 0;
#X restore 78 273 pd complexsub;
#N canvas 0 22 704 484 comlexdiv 0;
#X obj 142 65 inlet~;
#X obj 193 65 inlet~;
#X obj 342 65 inlet~;
#X obj 393 65 inlet~;
#X obj 250 332 outlet~;
#X obj 301 332 outlet~;
#X obj 250 286 /~;
#X obj 301 286 /~;
#X obj 394 184 *~;
#X obj 434 184 *~;
#X obj 405 223 +~;
#X obj 165 182 *~;
#X obj 205 182 *~;
#X obj 180 212 +~;
#X obj 285 182 *~;
#X obj 325 182 *~;
#X obj 300 212 -~;
#X connect 0 0 11 0;
#X connect 0 0 15 0;
#X connect 1 0 12 0;
#X connect 1 0 14 0;
#X connect 2 0 8 0;
#X connect 2 0 8 1;
#X connect 2 0 11 1;
#X connect 2 0 14 1;
#X connect 3 0 9 0;
#X connect 3 0 9 1;
#X connect 3 0 12 1;
#X connect 3 0 15 1;
#X connect 6 0 4 0;
#X connect 7 0 5 0;
#X connect 8 0 10 0;
#X connect 9 0 10 1;
#X connect 10 0 7 1;
#X connect 10 0 6 1;
#X connect 11 0 13 0;
#X connect 12 0 13 1;
#X connect 13 0 6 0;
#X connect 14 0 16 0;
#X connect 15 0 16 1;
#X connect 16 0 7 0;
#X restore 78 366 pd comlexdiv;
#X connect 0 0 9 0;
#X connect 1 0 3 0;
#X connect 1 0 2 0;
#X connect 2 0 9 3;
#X connect 3 0 9 2;
#X connect 6 0 10 2;
#X connect 9 0 10 0;
#X connect 9 1 10 1;
#X connect 10 0 4 0;
#X connect 10 1 5 0;
#X restore 197 243 pd zero2;
#X obj 125 336 outlet~;
#X obj 191 336 outlet~;
#X obj 257 336 outlet~;
#X obj 323 336 outlet~;
#X obj 125 159 *~ -1;
#X text 416 207 ---------------------;
#X text 461 218 2a;
#X text 370 193 roots = -b +/- sqrt(b^2 - 4ac);
#X text 305 244 Note: becase b0 is extracted from coefficents \, a
in the quadratic will always be 1;
#X connect 0 0 2 0;
#X connect 0 0 9 0;
#X connect 1 0 2 1;
#X connect 2 0 3 1;
#X connect 2 0 4 1;
#X connect 3 0 5 0;
#X connect 3 1 6 0;
#X connect 4 0 7 0;
#X connect 4 1 8 0;
#X connect 9 0 3 0;
#X connect 9 0 4 0;
#X restore 352 164 pd get.zero.locations;
#X obj 14 544 outlet~;
#X obj 14 242 *~;
#N canvas 79 68 821 502 get.pole.locations 0;
#X obj 125 76 inlet~;
#X obj 324 76 inlet~;
#X obj 121 336 outlet~;
#X obj 181 336 outlet~;
#X obj 241 336 outlet~;
#X obj 301 336 outlet~;
#N canvas 428 125 715 527 pole1 0;
#X obj 78 86 inlet~;
#X obj 243 86 inlet~;
#X obj 180 140 expr~ sqrt(($v1>=0)*$v1);
#X obj 78 420 outlet~;
#X obj 179 420 outlet~;
#X obj 168 323 sig~ 2;
#X text 310 185 if sqrt(b^2-4ac) is less than 0 \, make it the imaginary
part of the numerator. Else \, add it to the real part (imaginary stays
zero).;
#X text 226 273 -b + ...;
#X obj 386 139 expr~ sqrt(($v1<0)*abs($v1));
#N canvas 0 22 450 300 complexadd 0;
#X obj 42 41 inlet~;
#X obj 122 41 inlet~;
#X obj 242 41 inlet~;
#X obj 322 41 inlet~;
#X obj 130 154 +~;
#X obj 250 154 +~;
#X obj 130 197 outlet~;
#X obj 250 197 outlet~;
#X connect 0 0 4 0;
#X connect 1 0 5 0;
#X connect 2 0 4 1;
#X connect 3 0 5 1;
#X connect 4 0 6 0;
#X connect 5 0 7 0;
#X restore 78 273 pd complexadd;
#N canvas 0 22 707 432 complexdiv 0;
#X obj 142 65 inlet~;
#X obj 193 65 inlet~;
#X obj 342 65 inlet~;
#X obj 393 65 inlet~;
#X obj 250 332 outlet~;
#X obj 301 332 outlet~;
#X obj 250 286 /~;
#X obj 301 286 /~;
#X obj 394 184 *~;
#X obj 434 184 *~;
#X obj 405 223 +~;
#X obj 165 182 *~;
#X obj 205 182 *~;
#X obj 180 212 +~;
#X obj 285 182 *~;
#X obj 325 182 *~;
#X obj 300 212 -~;
#X connect 0 0 11 0;
#X connect 0 0 15 0;
#X connect 1 0 12 0;
#X connect 1 0 14 0;
#X connect 2 0 8 0;
#X connect 2 0 8 1;
#X connect 2 0 11 1;
#X connect 2 0 14 1;
#X connect 3 0 9 0;
#X connect 3 0 9 1;
#X connect 3 0 12 1;
#X connect 3 0 15 1;
#X connect 6 0 4 0;
#X connect 7 0 5 0;
#X connect 8 0 10 0;
#X connect 9 0 10 1;
#X connect 10 0 7 1;
#X connect 10 0 6 1;
#X connect 11 0 13 0;
#X connect 12 0 13 1;
#X connect 13 0 6 0;
#X connect 14 0 16 0;
#X connect 15 0 16 1;
#X connect 16 0 7 0;
#X restore 78 366 pd complexdiv;
#X connect 0 0 9 0;
#X connect 1 0 2 0;
#X connect 1 0 8 0;
#X connect 2 0 9 2;
#X connect 5 0 10 2;
#X connect 8 0 9 3;
#X connect 9 0 10 0;
#X connect 9 1 10 1;
#X connect 10 0 3 0;
#X connect 10 1 4 0;
#X restore 125 242 pd pole1;
#N canvas 415 127 715 527 pole2 0;
#X obj 78 86 inlet~;
#X obj 243 86 inlet~;
#X obj 383 139 expr~ sqrt(($v1<0)*abs($v1 ));
#X obj 180 140 expr~ sqrt(($v1>=0)*$v1);
#X obj 78 420 outlet~;
#X obj 171 420 outlet~;
#X obj 168 323 sig~ 2;
#X text 310 185 if sqrt(b^2-4ac) is less than 0 \, make it the imaginary
part of the numerator. Else \, add it to the real part (imaginary stays
zero).;
#X text 226 273 -b - ...;
#N canvas 0 22 450 300 complexsub 0;
#X obj 42 41 inlet~;
#X obj 122 41 inlet~;
#X obj 242 41 inlet~;
#X obj 322 41 inlet~;
#X obj 130 197 outlet~;
#X obj 250 197 outlet~;
#X obj 130 154 -~;
#X obj 250 154 -~;
#X connect 0 0 6 0;
#X connect 1 0 7 0;
#X connect 2 0 6 1;
#X connect 3 0 7 1;
#X connect 6 0 4 0;
#X connect 7 0 5 0;
#X restore 78 273 pd complexsub;
#N canvas 0 22 727 477 complexdiv 0;
#X obj 142 65 inlet~;
#X obj 193 65 inlet~;
#X obj 342 65 inlet~;
#X obj 393 65 inlet~;
#X obj 250 332 outlet~;
#X obj 301 332 outlet~;
#X obj 250 286 /~;
#X obj 301 286 /~;
#X obj 394 184 *~;
#X obj 434 184 *~;
#X obj 405 223 +~;
#X obj 165 182 *~;
#X obj 205 182 *~;
#X obj 180 212 +~;
#X obj 285 182 *~;
#X obj 325 182 *~;
#X obj 300 212 -~;
#X connect 0 0 11 0;
#X connect 0 0 15 0;
#X connect 1 0 12 0;
#X connect 1 0 14 0;
#X connect 2 0 8 0;
#X connect 2 0 8 1;
#X connect 2 0 11 1;
#X connect 2 0 14 1;
#X connect 3 0 9 0;
#X connect 3 0 9 1;
#X connect 3 0 12 1;
#X connect 3 0 15 1;
#X connect 6 0 4 0;
#X connect 7 0 5 0;
#X connect 8 0 10 0;
#X connect 9 0 10 1;
#X connect 10 0 7 1;
#X connect 10 0 6 1;
#X connect 11 0 13 0;
#X connect 12 0 13 1;
#X connect 13 0 6 0;
#X connect 14 0 16 0;
#X connect 15 0 16 1;
#X connect 16 0 7 0;
#X restore 78 366 pd complexdiv;
#X connect 0 0 9 0;
#X connect 1 0 3 0;
#X connect 1 0 2 0;
#X connect 2 0 9 3;
#X connect 3 0 9 2;
#X connect 6 0 10 2;
#X connect 9 0 10 0;
#X connect 9 1 10 1;
#X connect 10 0 4 0;
#X connect 10 1 5 0;
#X restore 197 243 pd pole2;
#X obj 125 159 *~ 1;
#X obj 201 160 expr~ $v1*$v1 + 4*$v2;
#X text 395 225 ---------------------;
#X text 440 236 2a;
#X text 349 211 roots = -b +/- sqrt(b^2 - 4ac);
#X text 285 253 Note: since a0 is assumed to be 1 \, a in the quadratic
will always be 1;
#X text 344 160 < - because it should be -a1 and -a2;
#X connect 0 0 8 0;
#X connect 0 0 9 0;
#X connect 1 0 9 1;
#X connect 6 0 2 0;
#X connect 6 1 3 0;
#X connect 7 0 4 0;
#X connect 7 1 5 0;
#X connect 8 0 6 0;
#X connect 8 0 7 0;
#X connect 9 0 6 1;
#X connect 9 0 7 1;
#X restore 114 363 pd get.pole.locations;
#X text 249 468 thank's to .mmb;
#X connect 0 0 1 0;
#X connect 0 1 1 1;
#X connect 1 0 2 0;
#X connect 1 1 2 1;
#X connect 2 0 3 0;
#X connect 2 1 3 1;
#X connect 3 0 12 0;
#X connect 4 0 13 0;
#X connect 5 0 10 0;
#X connect 6 0 10 1;
#X connect 7 0 10 2;
#X connect 8 0 14 0;
#X connect 9 0 14 1;
#X connect 10 0 13 1;
#X connect 10 1 11 0;
#X connect 10 2 11 1;
#X connect 11 0 0 2;
#X connect 11 1 0 3;
#X connect 11 2 1 2;
#X connect 11 3 1 3;
#X connect 13 0 0 0;
#X connect 14 0 2 2;
#X connect 14 1 2 3;
#X connect 14 2 3 2;
#X connect 14 3 3 3;
