#N canvas 300 251 522 494 10;
#X obj 386 331 text define \$0-set2;
#X msg 386 262 clear;
#X obj 277 331 text set \$0-set2;
#X obj 98 345 text search \$0-set2;
#X msg 98 276 \$2 \$1;
#X obj 98 367 ==;
#X obj 277 237 vs.iter;
#X obj 277 259 t a b;
#X obj 308 302 f;
#X obj 339 303 + 1;
#X obj 323 278 f 0;
#X obj 277 200 t a b b;
#X obj 98 389 vs.group 4;
#X obj 98 411 vs.sum;
#X obj 98 204 t a a;
#X obj 154 221 list length;
#X obj 98 433 ==;
#X obj 98 304 list split 1;
#X obj 250 85 t a a;
#X obj 250 118 list length;
#X obj 98 80 t a a;
#X obj 131 113 list length;
#X obj 131 135 ==;
#X obj 98 163 spigot;
#X obj 57 163 sel 0;
#X obj 57 185 f 0;
#X msg 332 64 1 t 3;
#X msg 169 56 1 t 3;
#X obj 57 461 outlet;
#X obj 250 25 inlet;
#X obj 98 22 inlet;
#X obj 98 252 vs.listfunnel;
#X text 399 462 f.bianchi;
#X connect 1 0 0 0;
#X connect 3 0 5 0;
#X connect 4 0 17 0;
#X connect 5 0 12 0;
#X connect 6 0 7 0;
#X connect 7 0 2 0;
#X connect 7 1 8 0;
#X connect 8 0 9 0;
#X connect 8 0 2 1;
#X connect 9 0 8 1;
#X connect 10 0 8 1;
#X connect 11 0 6 0;
#X connect 11 1 10 0;
#X connect 11 2 1 0;
#X connect 12 0 13 0;
#X connect 13 0 16 0;
#X connect 14 0 31 0;
#X connect 14 1 15 0;
#X connect 15 0 12 1;
#X connect 15 0 16 1;
#X connect 16 0 28 0;
#X connect 17 0 3 0;
#X connect 17 1 5 1;
#X connect 18 0 19 0;
#X connect 18 1 11 0;
#X connect 19 0 22 1;
#X connect 20 0 23 0;
#X connect 20 1 21 0;
#X connect 21 0 22 0;
#X connect 22 0 23 1;
#X connect 22 0 24 0;
#X connect 23 0 14 0;
#X connect 24 0 25 0;
#X connect 25 0 28 0;
#X connect 26 0 18 0;
#X connect 27 0 20 0;
#X connect 29 0 18 0;
#X connect 30 0 20 0;
#X connect 31 0 4 0;
