#N canvas 273 48 814 705 10;
#X obj 120 439 t f f;
#X obj 27 360 bng 15 250 50 0 empty empty empty 17 7 0 10 #fcfcfc #000000
#000000;
#X obj 33 559 expr if ($f1 <= $f2 \, $f1 / $f2 \, (1 - $f1) / (1. -
$f2)), f 34;
#X floatatom 275 332 5 0 0 0 - - -, f 5;
#X obj 33 530 / 511;
#X obj 70 437 - 1;
#X obj 70 323 vs.scale 0 100 0 512;
#X obj 70 348 int;
#X msg 329 381 const 0;
#X obj 43 201 t b f;
#X obj 275 303 / 100;
#X obj 43 7 loadbang;
#X obj 182 435 - 1;
#X obj 27 393 vs.uzi 512 0;
#X obj 329 406 s \$1;
#X obj 43 163 f 100;
#X obj 275 179 f 50;
#X obj 33 600 vs.scale 0 1 0 1 0;
#X obj 460 89 t b f;
#X obj 344 551 f;
#X obj 344 576 t b f;
#X obj 344 605 f 0;
#X obj 365 525 - 2;
#X obj 276 354 t b f b;
#X floatatom 275 45 5 0 0 2 duty #0-duty -, f 5;
#X floatatom 149 33 5 0 0 2 dim #0-dim -, f 5;
#X floatatom 460 45 5 0 0 2 curve #0-curve -, f 5;
#X floatatom 606 330 5 0 100 2 duty qlist_duty #0-duty, f 5;
#X floatatom 668 330 5 0 100 2 dim qlist_dim #0-dim, f 5;
#X floatatom 730 330 5 0 0 2 curve qlist_curve #0-curve, f 5;
#X obj 606 229 route duty dim curve;
#X obj 606 203 inlet;
#X obj 275 272 f;
#X obj 490 369 f 100;
#X obj 455 369 f 50;
#X obj 530 369 f 0;
#X obj 723 254 unpack 0 0 0;
#X text 640 536 f.bianchi;
#X obj 157 632 vs.pset;
#X obj 157 600 r \$0-arrayinfo;
#X obj 634 386 array define \$0-foo 2;
#X obj 344 174 s \$0-arrayinfo;
#X obj 344 99 t s s;
#N canvas 4 62 450 300 placeholder 0;
#X obj 126 93 symbol \$1;
#X obj 158 151 vs.compare;
#X msg 225 78 symbol;
#X obj 96 226 vs.switch;
#X obj 158 176 vs.!- 1;
#X obj 126 58 t b b, f 7;
#X obj 126 118 t s s;
#X obj 126 26 inlet;
#X obj 96 251 outlet;
#X connect 0 0 6 0;
#X connect 1 0 4 0;
#X connect 2 0 1 1;
#X connect 3 0 8 0;
#X connect 4 0 3 0;
#X connect 5 0 0 0;
#X connect 5 1 2 0;
#X connect 6 0 3 1;
#X connect 6 1 1 0;
#X connect 7 0 5 0;
#X restore 344 73 pd placeholder;
#X obj 43 34 t b b b b b;
#X obj 175 223 array size \$0-foo;
#X obj 437 603 r \$0-arrayinfo;
#X obj 344 632 array set \$0-foo;
#X obj 33 668 tabwrite \$0-foo;
#X obj 570 112 s duty;
#X obj 570 87 s curve;
#X obj 572 138 s dim;
#X connect 0 0 4 0;
#X connect 0 1 48 1;
#X connect 1 0 13 0;
#X connect 2 0 17 0;
#X connect 3 0 23 0;
#X connect 4 0 2 0;
#X connect 5 0 4 1;
#X connect 6 0 7 0;
#X connect 7 0 5 0;
#X connect 7 0 13 1;
#X connect 8 0 14 0;
#X connect 9 0 32 0;
#X connect 9 1 6 0;
#X connect 10 0 3 0;
#X connect 11 0 44 0;
#X connect 12 0 4 1;
#X connect 13 1 19 0;
#X connect 13 2 0 0;
#X connect 15 0 9 0;
#X connect 16 0 32 0;
#X connect 17 0 48 0;
#X connect 18 0 15 0;
#X connect 18 1 17 5;
#X connect 19 0 20 0;
#X connect 20 0 21 0;
#X connect 20 1 47 1;
#X connect 21 0 47 0;
#X connect 22 0 19 1;
#X connect 23 0 13 0;
#X connect 23 1 2 1;
#X connect 23 2 8 0;
#X connect 24 0 16 0;
#X connect 24 0 49 0;
#X connect 25 0 15 0;
#X connect 25 0 51 0;
#X connect 26 0 18 0;
#X connect 26 0 50 0;
#X connect 30 3 36 0;
#X connect 31 0 30 0;
#X connect 32 0 10 0;
#X connect 38 0 48 0;
#X connect 39 0 38 0;
#X connect 42 0 41 0;
#X connect 42 1 45 1;
#X connect 43 0 42 0;
#X connect 44 2 34 0;
#X connect 44 2 33 0;
#X connect 44 2 35 0;
#X connect 44 3 45 0;
#X connect 44 4 43 0;
#X connect 45 0 6 4;
#X connect 45 0 12 0;
#X connect 45 0 13 1;
#X connect 45 0 22 0;
#X connect 46 0 47 2;
#X coords 0 -1 1 1 170 50 1 600 300;
