#N canvas 252 363 538 304 10;
#X obj 126 99 list;
#X obj 126 125 list trim;
#X obj 126 150 vs.iter;
#X obj 126 177 route symbol;
#X obj 107 43 inlet;
#X obj 174 254 outlet;
#X obj 174 230 list;
#X obj 107 65 t b a b;
#X obj 291 204 list;
#X obj 195 204 list prepend;
#X text 346 260 f.bianchi;
#X connect 0 0 1 0;
#X connect 1 0 2 0;
#X connect 2 0 3 0;
#X connect 3 1 9 0;
#X connect 4 0 7 0;
#X connect 6 0 5 0;
#X connect 7 0 6 0;
#X connect 7 1 0 0;
#X connect 7 2 9 1;
#X connect 8 0 9 1;
#X connect 9 0 6 1;
#X connect 9 0 8 0;
