#N canvas 142 22 340 357 10;
#X obj 178 135 t l;
#X obj 56 142 list;
#X obj 29 24 inlet;
#X obj 86 167 list length;
#X obj 113 24 inlet;
#X obj 86 221 sel 1;
#X obj 86 196 == \$1;
#X obj 56 325 outlet;
#X obj 219 129 loadbang;
#X obj 219 154 f \$1;
#X obj 86 105 list prepend;
#X obj 29 58 route bang;
#X obj 29 83 t b b;
#X obj 219 179 vs.defaulter 1024;
#X text 249 316 f.bianchi;
#X connect 0 0 10 1;
#X connect 1 0 7 0;
#X connect 2 0 11 0;
#X connect 3 0 6 0;
#X connect 4 0 6 1;
#X connect 5 0 1 0;
#X connect 5 0 10 1;
#X connect 6 0 5 0;
#X connect 8 0 9 0;
#X connect 9 0 13 0;
#X connect 10 0 0 0;
#X connect 10 0 1 1;
#X connect 10 0 3 0;
#X connect 11 0 12 0;
#X connect 11 1 10 0;
#X connect 12 0 10 1;
#X connect 12 1 1 0;
#X connect 13 0 6 1;
