#N canvas 364 318 536 258 10;
#X obj 15 140 vs.selout~ 1;
#X obj 237 143 vs.selout~ 2;
#X obj 15 165 outlet~;
#X obj 237 168 outlet~;
#X obj 237 17 inlet~;
#X obj 84 16 inlet~;
#X obj 457 169 outlet~;
#X obj 457 105 -~ 2;
#X obj 457 138 max~ 0;
#X text 396 220 f.bianchi - M.Giri;
#X connect 0 0 2 0;
#X connect 1 0 3 0;
#X connect 4 0 0 0;
#X connect 4 0 1 0;
#X connect 5 0 0 1;
#X connect 5 0 1 1;
#X connect 5 0 7 0;
#X connect 7 0 8 0;
#X connect 8 0 6 0;
