#N canvas 0 22 493 276 10;
#X obj 22 16 inlet number;
#X obj 115 16 inlet inMin;
#X obj 210 16 inlet inMax;
#X obj 305 16 inlet outMin;
#X obj 400 17 inlet outMax;
#X obj 22 91 -;
#X obj 115 44 vs.pak4, f 48;
#X obj 115 66 unpack 0 0 0 0;
#X obj 22 133 /;
#X obj 115 91 vs.!-;
#X obj 169 92 vs.!-;
#X obj 22 155 *;
#X obj 22 177 +;
#X obj 22 236 outlet scaled;
#X text 262 244 f.bianchi \, thank's to J. McCartney;
#X connect 0 0 5 0;
#X connect 1 0 6 0;
#X connect 2 0 6 1;
#X connect 3 0 6 2;
#X connect 4 0 6 3;
#X connect 5 0 8 0;
#X connect 6 0 7 0;
#X connect 7 0 5 1;
#X connect 7 0 9 0;
#X connect 7 1 9 1;
#X connect 7 2 10 0;
#X connect 7 2 12 1;
#X connect 7 3 10 1;
#X connect 8 0 11 0;
#X connect 9 0 8 1;
#X connect 10 0 11 1;
#X connect 11 0 12 0;
#X connect 12 0 13 0;
