#N canvas 374 279 209 282 10;
#X obj 15 116 vs.iter;
#X obj 62 166 + 1;
#X obj 15 166 f \$1;
#X obj 42 90 f \$1;
#X obj 15 248 outlet;
#X obj 15 16 inlet;
#X obj 63 16 inlet offset;
#X obj 15 191 list;
#X obj 15 141 t b a;
#X obj 15 65 t a b;
#X text 131 256 f.bianchi;
#X connect 0 0 8 0;
#X connect 1 0 2 1;
#X connect 2 0 1 0;
#X connect 2 0 7 0;
#X connect 3 0 2 1;
#X connect 5 0 9 0;
#X connect 6 0 3 1;
#X connect 7 0 4 0;
#X connect 8 0 2 0;
#X connect 8 1 7 1;
#X connect 9 0 0 0;
#X connect 9 1 3 0;
