#N canvas 0 58 1920 992 10;
#X obj 15 94 list length;
#X obj 54 51 t l l;
#X obj 15 185 vs.gate;
#X obj 15 119 > 1;
#X obj 15 144 + 1;
#X obj 68 212 list split 2;
#X obj 129 296 delay;
#X obj 129 322 list;
#X obj 129 269 t b f;
#X obj 83 242 list split 1;
#X obj 54 12 inlet;
#X obj 206 21 inlet;
#X obj 397 21 inlet;
#X obj 15 410 line \$1 \$2;
#X obj 15 439 outlet;
#X obj 539 354 +;
#X obj 568 354 f;
#X msg 554 320 0;
#X obj 462 371 f;
#X obj 462 109 t b l b;
#X obj 462 461 outlet;
#X text 349 462 bang when finished;
#X obj 462 429 delay;
#X obj 482 144 vs.niter 2;
#X text 181 516 f.bianchi;
#X obj 482 171 unpack 0 0;
#X connect 0 0 3 0;
#X connect 1 0 2 1;
#X connect 1 0 19 0;
#X connect 1 1 0 0;
#X connect 2 0 13 0;
#X connect 2 1 5 0;
#X connect 3 0 4 0;
#X connect 4 0 2 0;
#X connect 5 0 9 0;
#X connect 5 0 13 0;
#X connect 5 1 7 1;
#X connect 6 0 7 0;
#X connect 7 0 5 0;
#X connect 8 0 6 0;
#X connect 8 1 6 1;
#X connect 9 1 8 0;
#X connect 10 0 1 0;
#X connect 11 0 13 1;
#X connect 12 0 13 2;
#X connect 13 0 14 0;
#X connect 15 0 16 0;
#X connect 15 0 18 1;
#X connect 16 0 15 1;
#X connect 17 0 15 1;
#X connect 18 0 22 0;
#X connect 19 0 18 0;
#X connect 19 1 23 0;
#X connect 19 2 17 0;
#X connect 22 0 20 0;
#X connect 23 0 25 0;
#X connect 25 1 15 0;
