#N canvas 224 252 198 198 10;
#X obj 15 71 list;
#X obj 15 100 list split;
#X obj 15 41 t b f;
#X obj 43 125 list split 1;
#X obj 15 14 inlet;
#X obj 91 14 inlet;
#X obj 43 150 outlet;
#X text 123 168 f.bianchi;
#X connect 0 0 1 0;
#X connect 1 1 3 0;
#X connect 2 0 0 0;
#X connect 2 1 1 1;
#X connect 3 0 6 0;
#X connect 4 0 2 0;
#X connect 5 0 0 1;
