#N canvas 275 85 303 194 10;
#X obj 54 120 list;
#X obj 11 47 inlet;
#X obj 38 160 outlet;
#X obj 188 10 loadbang;
#X obj 188 35 f \$1;
#X obj 140 47 inlet;
#X obj 11 119 t b a;
#X obj 140 119 route bang;
#X obj 188 61 vs.defaulter 2;
#X obj 11 78 list split 2, f 22;
#X text 219 169 f.bianchi;
#X connect 0 0 9 0;
#X connect 1 0 9 0;
#X connect 3 0 4 0;
#X connect 4 0 8 0;
#X connect 5 0 9 1;
#X connect 6 0 0 0;
#X connect 6 1 2 0;
#X connect 7 1 2 0;
#X connect 8 0 9 1;
#X connect 9 0 6 0;
#X connect 9 1 0 1;
#X connect 9 2 7 0;
