#N canvas 199 180 186 148 10;
#X obj 14 16 inlet;
#X obj 94 16 inlet;
#X obj 94 41 t b f;
#X obj 14 106 outlet;
#X obj 14 81 pack \$1 \$2;
#X text 106 123 f.bianchi;
#X connect 0 0 4 0;
#X connect 1 0 2 0;
#X connect 2 0 4 0;
#X connect 2 1 4 1;
#X connect 4 0 3 0;
