#N canvas 209 288 339 213 10;
#X obj 19 135 list append;
#X obj 19 160 list trim;
#X obj 19 17 inlet;
#X obj 120 17 inlet;
#X obj 19 185 outlet;
#X obj 179 17 inlet;
#X obj 280 17 inlet;
#X obj 179 70 t b l;
#X obj 19 99 vs.pak \$1 \$2;
#X obj 179 45 vs.pak \$3 \$4;
#X obj 253 90 loadbang;
#X obj 253 115 pack \$3 \$4;
#X text 262 180 f.bianchi;
#X connect 0 0 1 0;
#X connect 1 0 4 0;
#X connect 2 0 8 0;
#X connect 3 0 8 1;
#X connect 5 0 9 0;
#X connect 6 0 9 1;
#X connect 7 0 8 0;
#X connect 7 1 0 1;
#X connect 8 0 0 0;
#X connect 9 0 7 0;
#X connect 10 0 11 0;
#X connect 11 0 0 1;
