#N canvas 264 335 176 194 10;
#X obj 19 19 inlet;
#X obj 19 44 t b;
#X msg 19 69 1;
#X obj 19 95 atan;
#X obj 19 120 * 4;
#X obj 19 145 outlet;
#X text 27 173 f.bianchi - M.Giri;
#X connect 0 0 1 0;
#X connect 1 0 2 0;
#X connect 2 0 3 0;
#X connect 3 0 4 0;
#X connect 4 0 5 0;
