#N canvas 212 22 583 624 10;
#X text 90 87 bw = cf/q;
#X obj 246 170 expr $f1 / $f2;
#X obj 300 49 loadbang;
#X obj 300 74 t b b;
#X obj 327 102 samplerate~;
#X obj 246 105 vs.pi;
#X text 133 495 c2 = -r * r;
#X obj 33 552 outlet~ a1;
#X obj 124 552 outlet~ a2;
#X obj 252 553 outlet~ b0;
#X obj 367 553 outlet~ b1;
#X obj 478 552 outlet~ b2;
#X obj 246 130 * 2;
#X obj 367 510 sig~ 0;
#X obj 130 19 inlet~ Q;
#X obj 33 19 inlet~ freq;
#X obj 124 448 *~;
#X obj 124 473 *~ -1;
#X obj 252 422 sig~ 1;
#X obj 252 497 -~;
#X obj 478 403 sig~ 1;
#X obj 478 438 -~;
#X obj 478 493 *~;
#X obj 478 518 *~ -1;
#X obj 33 85 /~;
#X obj 33 187 *~;
#X obj 33 212 *~ -1;
#X obj 33 239 exp~;
#X obj 402 50 bng 15 250 50 0 empty empty empty 17 7 0 10 -262144 -1
-1;
#X obj 231 271 *~;
#X obj 231 296 expr~ cos($v1);
#X obj 33 313 *~;
#X obj 33 473 *~ 2;
#X obj 130 41 max~ 0.01;
#X text 267 594 f.bianchi;
#X connect 1 0 25 1;
#X connect 1 0 29 1;
#X connect 2 0 3 0;
#X connect 3 0 5 0;
#X connect 3 1 4 0;
#X connect 4 0 1 1;
#X connect 5 0 12 0;
#X connect 12 0 1 0;
#X connect 13 0 10 0;
#X connect 14 0 33 0;
#X connect 15 0 24 0;
#X connect 15 0 29 0;
#X connect 16 0 17 0;
#X connect 17 0 8 0;
#X connect 18 0 19 0;
#X connect 19 0 9 0;
#X connect 20 0 21 0;
#X connect 21 0 22 0;
#X connect 22 0 23 0;
#X connect 23 0 11 0;
#X connect 24 0 25 0;
#X connect 25 0 26 0;
#X connect 26 0 27 0;
#X connect 27 0 16 0;
#X connect 27 0 16 1;
#X connect 27 0 19 1;
#X connect 27 0 21 1;
#X connect 27 0 22 1;
#X connect 27 0 31 0;
#X connect 28 0 3 0;
#X connect 29 0 30 0;
#X connect 30 0 31 1;
#X connect 31 0 32 0;
#X connect 32 0 7 0;
#X connect 33 0 24 1;
