#N canvas 164 230 223 306 10;
#X obj 67 167 vs.reson_c;
#X obj 21 204 vs.biquad~, f 12;
#X obj 21 229 *~;
#X obj 21 16 inlet~ sig;
#X obj 36 41 inlet~ gain;
#X obj 67 67 inlet~ freq;
#X obj 124 93 inlet~ Q;
#X obj 21 274 outlet~;
#X obj 124 117 vs.argsig~ \$2;
#X obj 67 144 vs.argsig~ \$1;
#X text 143 277 f.bianchi;
#X connect 0 0 1 1;
#X connect 0 1 1 2;
#X connect 0 2 1 3;
#X connect 0 3 1 4;
#X connect 0 4 1 5;
#X connect 1 0 2 0;
#X connect 2 0 7 0;
#X connect 3 0 1 0;
#X connect 4 0 2 1;
#X connect 5 0 9 0;
#X connect 6 0 8 0;
#X connect 8 0 0 1;
#X connect 9 0 0 0;
