#N canvas 334 124 321 332 10;
#X obj 81 13 inlet;
#X obj 81 266 outlet;
#X obj 166 14 inlet;
#X obj 81 211 spigot;
#X obj 166 213 spigot;
#X obj 114 188 == 1;
#X obj 199 187 == 2;
#X obj 12 13 inlet;
#X obj 264 263 outlet;
#X obj 264 178 - 2;
#X obj 264 200 max 0;
#X obj 12 66 int;
#X text 184 307 f.bianchi - M.Giri;
#X connect 0 0 3 0;
#X connect 2 0 4 0;
#X connect 3 0 1 0;
#X connect 4 0 1 0;
#X connect 5 0 3 1;
#X connect 6 0 4 1;
#X connect 7 0 11 0;
#X connect 9 0 10 0;
#X connect 10 0 8 0;
#X connect 11 0 5 0;
#X connect 11 0 6 0;
#X connect 11 0 9 0;
