#N canvas 275 261 155 252 10;
#X obj 41 160 +;
#X obj 70 161 f;
#X msg 56 102 0;
#X obj 20 192 list;
#X obj 20 16 inlet;
#X obj 20 217 outlet;
#X obj 41 128 vs.iter;
#X obj 20 42 t b a b;
#X obj 41 71 vs.floatfilter;
#X text 81 225 f.bianchi;
#X connect 0 0 1 0;
#X connect 0 0 3 1;
#X connect 1 0 0 1;
#X connect 2 0 0 1;
#X connect 3 0 5 0;
#X connect 4 0 7 0;
#X connect 6 0 0 0;
#X connect 7 0 3 0;
#X connect 7 1 8 0;
#X connect 7 2 2 0;
#X connect 8 0 6 0;
