#N canvas 51 30 638 591 10;
#X obj 53 11 inlet number;
#X obj 157 11 inlet inMin;
#X obj 252 11 inlet inMax;
#X obj 347 11 inlet outMin;
#X obj 442 12 inlet outMax;
#X obj 547 11 inlet curve;
#X obj 14 563 outlet scaled;
#X obj 314 321 swap;
#X obj 314 343 -;
#X obj 314 370 /;
#X text 338 373 a;
#X obj 287 295 t f f;
#X obj 287 407 +;
#X text 312 412 b;
#X obj 157 210 vs.pak4, f 48;
#X obj 547 176 t b f;
#X obj 157 235 list append, f 70;
#X obj 157 257 unpack 0 0 0 0 0, f 44;
#X obj 418 311 exp;
#X obj 14 296 -;
#X obj 157 279 t f f;
#X obj 184 303 swap;
#X obj 184 325 -;
#X obj 14 342 /;
#X obj 14 463 pow;
#X obj 14 438 swap;
#X obj 14 485 *;
#X obj 14 507 swap;
#X obj 14 529 -;
#X obj 14 175 vs.gate;
#X obj 547 33 t f f;
#X obj 53 198 vs.linearscale;
#X obj 574 55 abs;
#X obj 574 77 < 0.001;
#X obj 14 152 + 1;
#N canvas 98 265 914 558 defaulter 0;
#X obj 163 62 loadbang;
#X obj 163 138 f \$1;
#X obj 211 138 f \$2;
#X obj 163 84 t b b b b b, f 33;
#X obj 260 138 f \$3;
#X obj 309 138 f \$4;
#X obj 358 138 f \$5;
#X obj 163 193 outlet;
#X obj 211 193 outlet;
#X obj 260 193 outlet;
#X obj 309 193 outlet;
#X obj 358 193 outlet;
#X connect 0 0 3 0;
#X connect 1 0 7 0;
#X connect 2 0 8 0;
#X connect 3 0 1 0;
#X connect 3 1 2 0;
#X connect 3 2 4 0;
#X connect 3 3 5 0;
#X connect 3 4 6 0;
#X connect 4 0 9 0;
#X connect 5 0 10 0;
#X connect 6 0 11 0;
#X restore 174 46 pd defaulter;
#X obj 418 333 vs.!- 1;
#X text 442 311 grow;
#X text 411 564 f.bianchi \, thank's to J. McCartney;
#X connect 0 0 29 1;
#X connect 1 0 14 0;
#X connect 1 0 31 1;
#X connect 2 0 14 1;
#X connect 2 0 31 2;
#X connect 3 0 14 2;
#X connect 3 0 31 3;
#X connect 4 0 14 3;
#X connect 4 0 31 4;
#X connect 5 0 30 0;
#X connect 7 0 8 0;
#X connect 7 1 8 1;
#X connect 8 0 9 0;
#X connect 9 0 12 1;
#X connect 9 0 26 1;
#X connect 11 0 12 0;
#X connect 11 1 7 0;
#X connect 12 0 27 1;
#X connect 14 0 16 0;
#X connect 15 0 14 0;
#X connect 15 1 16 1;
#X connect 16 0 17 0;
#X connect 17 0 20 0;
#X connect 17 1 21 1;
#X connect 17 2 11 0;
#X connect 17 3 7 1;
#X connect 17 4 18 0;
#X connect 18 0 36 0;
#X connect 18 0 25 1;
#X connect 19 0 23 0;
#X connect 20 0 19 1;
#X connect 20 1 21 0;
#X connect 21 0 22 0;
#X connect 21 1 22 1;
#X connect 22 0 23 1;
#X connect 23 0 25 0;
#X connect 24 0 26 0;
#X connect 25 0 24 0;
#X connect 25 1 24 1;
#X connect 26 0 27 0;
#X connect 27 0 28 0;
#X connect 27 1 28 1;
#X connect 28 0 6 0;
#X connect 29 0 19 0;
#X connect 29 1 31 0;
#X connect 30 0 15 0;
#X connect 30 1 32 0;
#X connect 31 0 6 0;
#X connect 32 0 33 0;
#X connect 33 0 34 0;
#X connect 34 0 29 0;
#X connect 35 0 31 1;
#X connect 35 0 14 0;
#X connect 35 1 31 2;
#X connect 35 1 14 1;
#X connect 35 2 31 3;
#X connect 35 2 14 2;
#X connect 35 3 31 4;
#X connect 35 3 14 3;
#X connect 35 4 30 0;
#X connect 36 0 9 1;
