#N canvas 539 233 428 384 10;
#X obj 287 289 f;
#X obj 331 289 + 1;
#X obj 96 235 until;
#X obj 96 201 t f b;
#X msg 302 218 0;
#X obj 35 16 inlet;
#X obj 96 162 f \$1;
#X obj 287 318 + \$2;
#X obj 35 74 t b b, f 8;
#X obj 192 351 outlet;
#X obj 96 351 outlet;
#X obj 287 352 outlet;
#X obj 36 113 t b f;
#X obj 35 46 route bang float offset;
#X obj 96 272 t b b;
#X obj 280 18 inlet howmany;
#X obj 280 43 route float stop;
#X obj 326 72 t b;
#X text 353 354 f.bianchi;
#X connect 0 0 1 0;
#X connect 0 0 7 0;
#X connect 1 0 0 1;
#X connect 2 0 14 0;
#X connect 3 0 2 0;
#X connect 3 1 4 0;
#X connect 4 0 0 1;
#X connect 5 0 13 0;
#X connect 6 0 3 0;
#X connect 7 0 11 0;
#X connect 8 0 9 0;
#X connect 8 1 6 0;
#X connect 12 0 9 0;
#X connect 12 1 6 0;
#X connect 13 0 8 0;
#X connect 13 1 12 0;
#X connect 13 2 7 1;
#X connect 14 0 10 0;
#X connect 14 1 0 0;
#X connect 15 0 16 0;
#X connect 16 0 6 1;
#X connect 16 1 17 0;
#X connect 17 0 2 1;
